<svg width="7" height="15" viewBox="0 0 7 15" fill="none" xmlns="http://www.w3.org/2000/svg">
<path fill-rule="evenodd" clip-rule="evenodd" d="M2.78492 9.76765C2.80635 9.8369 2.83295 9.90341 2.86804 9.96406C2.91042 10.0367 2.9643 10.0997 3.03717 10.1403C3.12987 10.1905 3.26794 10.2106 3.37126 10.2189C3.53814 10.2296 3.71499 10.2238 3.88186 10.2104C3.93743 10.2058 3.99462 10.1993 4.0504 10.1942C4.22779 10.1759 4.41064 10.1553 4.57981 10.2291C4.73913 10.2939 4.83993 10.4199 4.90652 10.5753L5.97752 13.0809C6.00598 13.1494 6.01484 13.2252 5.99188 13.2985C5.96578 13.3826 5.90668 13.4487 5.8367 13.5031C5.55933 13.7145 5.24863 13.8873 4.91155 13.9806C4.41238 14.1154 3.9233 14.0531 3.46193 13.8228C2.97087 13.5781 2.55431 13.1664 2.22356 12.7352C1.64704 11.9808 1.22496 11.042 0.970204 10.1343C0.859632 9.74071 0.789884 9.32662 0.741442 8.92406C0.683023 8.44768 0.651977 7.9631 0.653201 7.48578C0.653562 7.00467 0.686188 6.5223 0.745148 6.04575C0.796137 5.64423 0.866606 5.23144 0.977013 4.84202C1.23794 3.93625 1.66029 3.00539 2.23849 2.26375C2.57091 1.83895 2.98798 1.43705 3.47926 1.20045C3.94089 0.979584 4.4328 0.927531 4.9276 1.0735C5.26891 1.17184 5.57849 1.35338 5.85601 1.56941C5.92427 1.62318 5.98269 1.68925 6.00918 1.77291C6.03264 1.84741 6.02458 1.92285 5.99365 1.99231L4.91438 4.47674C4.84839 4.62967 4.74381 4.75421 4.58691 4.81734C4.41779 4.88367 4.23631 4.86144 4.05916 4.83859C4.0023 4.83195 3.94575 4.8258 3.88962 4.82284C3.72183 4.80501 3.54704 4.79524 3.38012 4.80532C3.27609 4.81032 3.13932 4.82563 3.04665 4.87442C2.97184 4.91413 2.91763 4.97443 2.87383 5.04702C2.83236 5.1211 2.80121 5.20785 2.77671 5.2898C2.69579 5.56721 2.65804 5.91181 2.63607 6.20045C2.59718 6.63267 2.58316 7.06877 2.58121 7.50155C2.58213 7.93602 2.59416 8.37344 2.62997 8.80722C2.65501 9.09777 2.68963 9.43818 2.77128 9.71863L2.78509 9.76802L2.78492 9.76765Z" fill="#990000"/>
</svg>
