<?xml version="1.0" encoding="UTF-8"?>
<!DOCTYPE svg PUBLIC "-//W3C//DTD SVG 1.1//EN" "http://www.w3.org/Graphics/SVG/1.1/DTD/svg11.dtd">
<svg xmlns="http://www.w3.org/2000/svg" version="1.1" width="216px" height="200px" style="shape-rendering:geometricPrecision; text-rendering:geometricPrecision; image-rendering:optimizeQuality; fill-rule:evenodd; clip-rule:evenodd" xmlns:xlink="http://www.w3.org/1999/xlink">
<g><path style="opacity:1" fill="#656666" d="M 104.5,26.5 C 144.231,28.1037 169.065,48.1037 179,86.5C 183.059,124.887 167.559,152.053 132.5,168C 99.9195,177.815 72.4195,169.981 50,144.5C 29.0849,113.963 29.4182,83.6299 51,53.5C 65.3482,37.4095 83.1815,28.4095 104.5,26.5 Z M 104.5,60.5 C 107.547,59.8554 109.713,60.8554 111,63.5C 111.5,73.828 111.666,84.1613 111.5,94.5C 121.839,94.3335 132.172,94.5002 142.5,95C 146.037,96.8265 146.371,99.1598 143.5,102C 132.839,102.5 122.172,102.667 111.5,102.5C 111.666,112.839 111.5,123.172 111,133.5C 108.814,138.347 106.148,138.68 103,134.5C 102.5,123.839 102.333,113.172 102.5,102.5C 91.8281,102.667 81.1615,102.5 70.5,102C 67.6293,99.1598 67.9626,96.8265 71.5,95C 81.828,94.5002 92.1613,94.3335 102.5,94.5C 102.333,83.8281 102.5,73.1615 103,62.5C 103.717,61.9558 104.217,61.2891 104.5,60.5 Z"/></g>
<g><path style="opacity:1" fill="#02a3c6" d="M 100.5,33.5 C 138.743,33.695 162.243,52.3617 171,89.5C 172.743,129.858 153.91,154.358 114.5,163C 76.3685,164.194 52.5351,146.361 43,109.5C 40.4865,67.5388 59.6531,42.2055 100.5,33.5 Z M 104.5,60.5 C 104.217,61.2891 103.717,61.9558 103,62.5C 102.5,73.1615 102.333,83.8281 102.5,94.5C 92.1613,94.3335 81.828,94.5002 71.5,95C 67.9626,96.8265 67.6293,99.1598 70.5,102C 81.1615,102.5 91.8281,102.667 102.5,102.5C 102.333,113.172 102.5,123.839 103,134.5C 106.148,138.68 108.814,138.347 111,133.5C 111.5,123.172 111.666,112.839 111.5,102.5C 122.172,102.667 132.839,102.5 143.5,102C 146.371,99.1598 146.037,96.8265 142.5,95C 132.172,94.5002 121.839,94.3335 111.5,94.5C 111.666,84.1613 111.5,73.828 111,63.5C 109.713,60.8554 107.547,59.8554 104.5,60.5 Z"/></g>
</svg>
