<?xml version="1.0" encoding="UTF-8"?>
<!DOCTYPE svg PUBLIC "-//W3C//DTD SVG 1.1//EN" "http://www.w3.org/Graphics/SVG/1.1/DTD/svg11.dtd">
<svg xmlns="http://www.w3.org/2000/svg" version="1.1" width="138px" height="154px" style="shape-rendering:geometricPrecision; text-rendering:geometricPrecision; image-rendering:optimizeQuality; fill-rule:evenodd; clip-rule:evenodd" xmlns:xlink="http://www.w3.org/1999/xlink">
<g><path style="opacity:1" fill="#3e9309" d="M 60.5,34.5 C 86.8639,32.4177 104.364,43.7511 113,68.5C 116.873,88.5554 110.706,104.722 94.5,117C 70.4306,130.201 49.5973,126.368 32,105.5C 18.2028,81.1148 22.0362,59.9481 43.5,42C 49.0319,38.8942 54.6986,36.3942 60.5,34.5 Z M 44.5,76.5 C 60.8367,76.3334 77.1701,76.5001 93.5,77C 96.1667,78.6667 96.1667,80.3333 93.5,82C 77.1667,82.6667 60.8333,82.6667 44.5,82C 41.9824,80.1899 41.9824,78.3566 44.5,76.5 Z"/></g>
</svg>
