<?xml version="1.0" encoding="UTF-8"?>
<!DOCTYPE svg PUBLIC "-//W3C//DTD SVG 1.1//EN" "http://www.w3.org/Graphics/SVG/1.1/DTD/svg11.dtd">
<svg xmlns="http://www.w3.org/2000/svg" version="1.1" width="216px" height="200px" style="shape-rendering:geometricPrecision; text-rendering:geometricPrecision; image-rendering:optimizeQuality; fill-rule:evenodd; clip-rule:evenodd" xmlns:xlink="http://www.w3.org/1999/xlink">
<g><path style="opacity:1" fill="#02a4c7" d="M 105.5,33.5 C 133.422,34.6077 153.589,47.6077 166,72.5C 178.593,110.396 167.427,138.896 132.5,158C 100.25,169.151 73.7503,161.317 53,134.5C 35.1559,102.119 39.6559,73.2859 66.5,48C 78.1503,39.2862 91.1503,34.4529 105.5,33.5 Z M 70.5,94.5 C 94.8356,94.3334 119.169,94.5 143.5,95C 146.167,97.3333 146.167,99.6667 143.5,102C 119.167,102.667 94.8333,102.667 70.5,102C 67.9142,99.506 67.9142,97.006 70.5,94.5 Z"/></g>
</svg>
