<?xml version="1.0" encoding="UTF-8"?>
<!DOCTYPE svg PUBLIC "-//W3C//DTD SVG 1.1//EN" "http://www.w3.org/Graphics/SVG/1.1/DTD/svg11.dtd">
<svg xmlns="http://www.w3.org/2000/svg" version="1.1" width="138px" height="154px" style="shape-rendering:geometricPrecision; text-rendering:geometricPrecision; image-rendering:optimizeQuality; fill-rule:evenodd; clip-rule:evenodd" xmlns:xlink="http://www.w3.org/1999/xlink">
<g><path style="opacity:1" fill="#3e930b" d="M 56.5,30.5 C 82.8639,28.4177 100.364,39.7511 109,64.5C 112.873,84.5554 106.706,100.722 90.5,113C 66.4306,126.201 45.5973,122.368 28,101.5C 14.2028,77.1148 18.0362,55.9481 39.5,38C 45.0319,34.8942 50.6986,32.3942 56.5,30.5 Z M 64.5,48.5 C 65.1499,48.8039 65.8165,49.1373 66.5,49.5C 67.4975,57.1378 67.8308,64.8045 67.5,72.5C 74.8409,72.3337 82.1742,72.5003 89.5,73C 92.1667,74.6667 92.1667,76.3333 89.5,78C 82.1742,78.4997 74.8409,78.6663 67.5,78.5C 67.8308,86.1955 67.4975,93.8622 66.5,101.5C 65.5,102.833 64.5,102.833 63.5,101.5C 62.5025,93.8622 62.1692,86.1955 62.5,78.5C 55.1591,78.6663 47.8258,78.4997 40.5,78C 37.8333,76.3333 37.8333,74.6667 40.5,73C 47.8258,72.5003 55.1591,72.3337 62.5,72.5C 61.9154,64.2279 62.5821,56.2279 64.5,48.5 Z"/></g>
</svg>
